<?xml-stylesheet type="text/css"?>
<svg id="SVGWI07" version="1.1" xmlns="http://www.w3.org/2000/svg" xmlns:xlink="http://www.w3.org/1999/xlink" viewBox="0 0 100 100">
	<defs>
		<!-- Cloud Color  -->
		<radialGradient id="SVGWI07_cloud_color" cx="60%" cy="20%" r="100%">
			<stop offset="0%" stop-color="#FFFFFF" class="svgwi-cloud-color1"/>
			<stop offset="30%" stop-color="#92a1a8" class="svgwi-cloud-color2"/>           
			<stop offset="75%" stop-color="#303438" class="svgwi-cloud-color3"/>
		</radialGradient>
		
		<!-- Rain Drops Color  -->
		<linearGradient id="SVGWI07_rain_drop_color" x1="0%" y1="0%" x2="0%" y2="100%">
           <stop offset="10%" stop-color="#FFFFFF" class="svgwi-rain-color1" stop-opacity="0" />
		   <stop offset="35%" stop-color="#FFFFFF" class="svgwi-rain-color1" stop-opacity="1" />
		   <stop offset="50%" stop-color="#FFFFFF" class="svgwi-rain-color2" stop-opacity="1" />
		   <stop offset="85%" stop-color="#FFFFFF" class="svgwi-rain-color2" stop-opacity="1" />
		   <stop offset="100%" stop-color="#FFFFFF" class="svgwi-rain-color2" stop-opacity="0" />
		</linearGradient>
		
		<!-- Part of Cloud  -->
		<path id="SVGWI07_cloud_part" fill="#FFFFFF" d="M19.527-5.251C18.24-9.21,14.581-11.87,10.42-11.87c-0.324,0-0.646,0.023-0.967,0.055
		c-0.885-4.372-4.756-7.673-9.385-7.673c-4.634,0-8.509,3.309-9.388,7.688c-0.366-0.042-0.733-0.071-1.101-0.071
		c-4.161,0-7.82,2.658-9.105,6.617c-0.791,2.433-0.586,5.025,0.575,7.305c0.848,1.663,2.132,3.008,3.709,3.923
		c-0.738,1.667-0.985,3.513-0.693,5.357c0.4,2.526,1.76,4.746,3.829,6.249c1.647,1.196,3.591,1.83,5.623,1.83
		c2.374,0,4.648-0.892,6.388-2.446c1.751,1.604,4.063,2.525,6.477,2.525c2.031,0,3.976-0.632,5.623-1.829
		c3.711-2.696,4.913-7.578,3.13-11.614c1.626-0.916,2.95-2.289,3.817-3.99C20.113-0.224,20.317-2.819,19.527-5.251z"
		/>
		
		<!-- Cloud Set (3 Parts assembled)  -->
		<clipPath id="SVGWI07_cloud">
			<use x="28" y="52" xlink:href="#SVGWI07_cloud_part" />
			<use x="72" y="52" xlink:href="#SVGWI07_cloud_part" />
			<use x="-35" y="-35" xlink:href="#SVGWI07_cloud_part" transform="scale(1.4) rotate(180)" />           
		</clipPath>	

		<!-- Single Snow Flake  -->
		<polygon id="SVGWI07_snow_flake" fill-rule="evenodd" clip-rule="evenodd" fill="#D82A2A" points="6.928,0 6.563,-0.633 4.949,-0.633 5.653,-1.852 
			5.287,-2.485 4.557,-2.485 3.487,-0.633 1.096,-0.633 2.292,-2.703 4.43,-2.703 4.794,-3.336 4.43,-3.969 3.022,-3.969 3.83,-5.367 
			3.464,-6 2.734,-6 1.926,-4.602 1.223,-5.821 0.492,-5.821 0.126,-5.188 1.195,-3.336 0,-1.265 -1.195,-3.336 -0.126,-5.188 
			-0.492,-5.821 -1.223,-5.821 -1.926,-4.602 -2.734,-6 -3.464,-6 -3.83,-5.367 -3.022,-3.969 -4.43,-3.969 -4.794,-3.336 
			-4.43,-2.703 -2.292,-2.703 -1.096,-0.633 -3.487,-0.633 -4.556,-2.485 -5.287,-2.485 -5.653,-1.852 -4.949,-0.633 -6.563,-0.633 
			-6.928,0 -6.563,0.633 -4.949,0.633 -5.653,1.852 -5.287,2.485 -4.556,2.485 -3.487,0.633 -1.096,0.633 -2.292,2.703 -4.43,2.703 
			-4.794,3.336 -4.43,3.969 -3.022,3.969 -3.83,5.367 -3.464,6 -2.734,6 -1.926,4.602 -1.223,5.821 -0.492,5.821 -0.126,5.188 
			-1.195,3.336 0,1.265 1.195,3.336 0.127,5.188 0.492,5.821 1.223,5.821 1.926,4.602 2.734,6 3.464,6 3.83,5.367 3.022,3.969 
			4.43,3.969 4.795,3.336 4.43,2.703 2.292,2.703 1.096,0.633 3.487,0.633 4.557,2.485 5.287,2.485 5.653,1.852 4.949,0.633 
			6.563,0.633 "/>
			
		<!-- Single Snow Circle  -->
		<circle id="SVGWI07_snow_circle" fill-rule="evenodd" clip-rule="evenodd" fill="#D82A2A" cx="0" cy="0" r="2.031"/>
		
		<!-- Group of Snow Flakes  -->
		<clipPath id="SVGWI07_snow_set" transform="translate(50, 40)">
			<use x="-10" y="0" xlink:href="#SVGWI07_snow_circle" />
			<use x="10" y="0" xlink:href="#SVGWI07_snow_flake" />
			<use x="-15" y="20" xlink:href="#SVGWI07_snow_flake" />
			<use x="15" y="15" xlink:href="#SVGWI07_snow_circle" />			
			<use x="0" y="35" xlink:href="#SVGWI07_snow_flake" />
			
			<use x="-10" y="60" xlink:href="#SVGWI07_snow_circle"/>
			<use x="10" y="60" xlink:href="#SVGWI07_snow_flake" />
			<use x="-15" y="80" xlink:href="#SVGWI07_snow_flake" />
			<use x="15" y="75" xlink:href="#SVGWI07_snow_circle" />			
			<use x="0" y="95" xlink:href="#SVGWI07_snow_flake" />

			<use x="-10" y="120" xlink:href="#SVGWI07_snow_circle" />
			<use x="10" y="120" xlink:href="#SVGWI07_snow_flake" />
			<use x="-15" y="140" xlink:href="#SVGWI07_snow_flake" />
			<use x="15" y="135" xlink:href="#SVGWI07_snow_circle" />			
			<use x="0" y="155" xlink:href="#SVGWI07_snow_flake" />
		</clipPath>		
	</defs>
	
	<!-- Cloud inserted here as clip path -->
	<rect width="100" height="100" fill="url(#SVGWI07_cloud_color)" clip-path="url(#SVGWI07_cloud)" transform="translate(2, -5) scale(.95)" />	
	
	<!-- Snow Flake set inserted here as clip path -->
	<rect y="45" width="100" height="50" fill="url(#SVGWI07_rain_drop_color)" clip-path="url(#SVGWI07_snow_set)"/>
	
	<!-- JavaScript takes care the entire animation part -->
	<script type="text/javascript"><![CDATA[
		!function(){function m(){requestAnimationFrame(m),f+=a,i.setAttribute("transform","rotate("+f+")"),h+=b,h>0&&(h-=60),j.setAttribute("transform","translate(50,"+h+")"),g+=5,k.setAttribute("transform","rotate("+g+" 1,1)"),l.setAttribute("transform","rotate(-"+g+" 4,-4)")}for(var a=.5,b=1,c=0,d=["ms","moz","webkit","o"],e=0;e<d.length&&!window.requestAnimationFrame;++e)window.requestAnimationFrame=window[d[e]+"RequestAnimationFrame"],window.cancelAnimationFrame=window[d[e]+"CancelAnimationFrame"]||window[d[e]+"CancelRequestAnimationFrame"];window.requestAnimationFrame||(window.requestAnimationFrame=function(a,b){var d=(new Date).getTime(),e=Math.max(0,16-(d-c)),f=window.setTimeout(function(){a(d+e)},e);return c=d+e,f}),window.cancelAnimationFrame||(window.cancelAnimationFrame=function(a){clearTimeout(a)});var f=0,g=0,h=0,i=document.getElementById("SVGWI07_cloud_part"),j=document.getElementById("SVGWI07_snow_set"),k=document.getElementById("SVGWI07_snow_flake"),l=document.getElementById("SVGWI07_snow_circle");m()}();
	]]></script>
</svg>
